<mxfile host="65bd71144e">
    <diagram id="63PozuRk0qes4atrPhXB" name="dark">
        <mxGraphModel dx="1306" dy="1084" grid="0" gridSize="10" guides="1" tooltips="1" connect="1" arrows="1" fold="1" page="0" pageScale="1" pageWidth="827" pageHeight="1169" background="none" math="0" shadow="0">
            <root>
                <mxCell id="0"/>
                <mxCell id="1" parent="0"/>
                <mxCell id="6BPpFTSiv5qvTVN_rAg3-24" value="" style="group" parent="1" vertex="1" connectable="0">
                    <mxGeometry x="2" y="174" width="933" height="216" as="geometry"/>
                </mxCell>
                <mxCell id="6BPpFTSiv5qvTVN_rAg3-21" value="" style="rounded=0;whiteSpace=wrap;html=1;fontSize=12;dashed=1;fillColor=none;strokeWidth=1.5;strokeColor=#808080;" parent="6BPpFTSiv5qvTVN_rAg3-24" vertex="1">
                    <mxGeometry x="288" width="645" height="216" as="geometry"/>
                </mxCell>
                <mxCell id="6BPpFTSiv5qvTVN_rAg3-3" style="edgeStyle=orthogonalEdgeStyle;rounded=0;orthogonalLoop=1;jettySize=auto;html=1;exitX=1;exitY=0.5;exitDx=0;exitDy=0;exitPerimeter=0;entryX=0;entryY=0.5;entryDx=0;entryDy=0;fillColor=#f5f5f5;strokeColor=#666666;" parent="6BPpFTSiv5qvTVN_rAg3-24" target="6BPpFTSiv5qvTVN_rAg3-2" edge="1">
                    <mxGeometry relative="1" as="geometry">
                        <mxPoint x="90" y="93" as="sourcePoint"/>
                    </mxGeometry>
                </mxCell>
                <mxCell id="6BPpFTSiv5qvTVN_rAg3-2" value="Pandas DataFrame" style="shape=image;editableCssRules=.*;image=data:image/svg+xml,PHN2ZyB2aWV3Qm94PSIwIDAgMjQgMjQiIHhtbG5zPSJodHRwOi8vd3d3LnczLm9yZy8yMDAwL3N2ZyI+PHN0eWxlPip7ZmlsbDojMTUwNDU4fTwvc3R5bGU+PHBhdGggZD0iTTE2LjkyMiAwaDIuNjIzdjE4LjEwNGgtMi42MjN6bS00LjEyNiAxMi45NGgyLjYyM3YyLjU3aC0yLjYyM3ptMC03LjAzN2gyLjYyM3Y1LjQ0NmgtMi42MjN6bTAgMTEuMTk3aDIuNjIzdjUuNDQ2aC0yLjYyM3pNNC40NTYgNS44OTZoMi42MjJWMjRINC40NTV6bTQuMjEzIDIuNTU5aDIuNjIzdjIuNTdIOC42N3ptMCA0LjE1MWgyLjYyM3Y1LjQ0N0g4LjY3em0wLTExLjE4N2gyLjYyM3Y1LjQ0Nkg4LjY3WiIvPjwvc3ZnPg==;labelPosition=center;verticalLabelPosition=bottom;align=center;verticalAlign=top;fontStyle=1;fontColor=#FFFFFF;" parent="6BPpFTSiv5qvTVN_rAg3-24" vertex="1">
                    <mxGeometry x="163" y="50" width="85" height="86" as="geometry"/>
                </mxCell>
                <mxCell id="6BPpFTSiv5qvTVN_rAg3-11" style="rounded=0;orthogonalLoop=1;jettySize=auto;html=1;exitX=1;exitY=0.5;exitDx=0;exitDy=0;entryX=0;entryY=0.5;entryDx=0;entryDy=0;fontSize=78;fillColor=#f5f5f5;strokeColor=#666666;" parent="6BPpFTSiv5qvTVN_rAg3-24" source="6BPpFTSiv5qvTVN_rAg3-2" edge="1">
                    <mxGeometry relative="1" as="geometry">
                        <mxPoint x="321" y="93.005" as="targetPoint"/>
                    </mxGeometry>
                </mxCell>
                <mxCell id="6BPpFTSiv5qvTVN_rAg3-23" value="&lt;b&gt;&lt;font color=&quot;#ffffff&quot;&gt;Audio Data&lt;/font&gt;&lt;/b&gt;" style="shadow=0;dashed=0;html=1;strokeColor=none;fillColor=#4495D1;labelPosition=center;verticalLabelPosition=bottom;verticalAlign=top;align=center;outlineConnect=0;shape=mxgraph.veeam.backup_file;strokeWidth=2;fontSize=12;" parent="6BPpFTSiv5qvTVN_rAg3-24" vertex="1">
                    <mxGeometry y="51.06999999999999" width="90.8" height="83.86" as="geometry"/>
                </mxCell>
                <mxCell id="6BPpFTSiv5qvTVN_rAg3-51" value="&lt;font style=&quot;font-size: 12px&quot; color=&quot;#ffffff&quot;&gt;&lt;b&gt;HuggingFace Dataset&lt;/b&gt;&lt;/font&gt;" style="text;html=1;resizable=0;autosize=1;align=center;verticalAlign=middle;points=[];fillColor=none;strokeColor=none;rounded=0;dashed=1;labelBackgroundColor=none;strokeWidth=1.5;fontSize=90;fontColor=#000000;" parent="6BPpFTSiv5qvTVN_rAg3-24" vertex="1">
                    <mxGeometry x="300" y="56" width="133" height="139" as="geometry"/>
                </mxCell>
                <mxCell id="6BPpFTSiv5qvTVN_rAg3-50" value="&lt;font style=&quot;font-size: 90px;&quot;&gt;ðŸ¤—&lt;/font&gt;" style="text;html=1;resizable=0;autosize=1;align=center;verticalAlign=middle;points=[];fillColor=none;strokeColor=none;rounded=0;dashed=1;labelBackgroundColor=none;strokeWidth=1.5;fontSize=12;fontColor=#000000;" parent="6BPpFTSiv5qvTVN_rAg3-24" vertex="1">
                    <mxGeometry x="313.64" y="33.5" width="108" height="120" as="geometry"/>
                </mxCell>
                <mxCell id="6BPpFTSiv5qvTVN_rAg3-12" value="Audio Classification" style="shape=image;editableCssRules=.*;image=data:image/svg+xml,PHN2ZyB2aWV3Qm94PSIwIDAgMjQgMjQiIHhtbG5zPSJodHRwOi8vd3d3LnczLm9yZy8yMDAwL3N2ZyI+PHN0eWxlPip7ZmlsbDojRUU0QzJDfTwvc3R5bGU+PHBhdGggZD0iTTEyLjAwNSAwTDQuOTUyIDcuMDUzYTkuODY1IDkuODY1IDAgMDAwIDE0LjAyMiA5Ljg2NiA5Ljg2NiAwIDAwMTQuMDIyIDBjMy45ODQtMy45IDMuOTg2LTEwLjIwNS4wODUtMTQuMDIzbC0xLjc0NCAxLjc0M2MyLjkwNCAyLjkwNSAyLjkwNCA3LjYzNCAwIDEwLjUzOHMtNy42MzQgMi45MDQtMTAuNTM4IDAtMi45MDQtNy42MzQgMC0xMC41MzhsNC42NDctNC42NDYuNTgyLS42NjV6bTMuNTY4IDMuODk5YTEuMzI3IDEuMzI3IDAgMDAtMS4zMjcgMS4zMjcgMS4zMjcgMS4zMjcgMCAwMDEuMzI3IDEuMzI4QTEuMzI3IDEuMzI3IDAgMDAxNi45IDUuMjI2IDEuMzI3IDEuMzI3IDAgMDAxNS41NzMgMy45eiIvPjwvc3ZnPg==;fontSize=12;labelPosition=center;verticalLabelPosition=bottom;align=center;verticalAlign=top;fontStyle=1;fontColor=#FFFFFF;" parent="6BPpFTSiv5qvTVN_rAg3-24" vertex="1">
                    <mxGeometry x="487" y="47" width="93" height="92" as="geometry"/>
                </mxCell>
                <mxCell id="6BPpFTSiv5qvTVN_rAg3-13" style="edgeStyle=none;rounded=0;orthogonalLoop=1;jettySize=auto;html=1;exitX=1;exitY=0.5;exitDx=0;exitDy=0;entryX=0;entryY=0.5;entryDx=0;entryDy=0;fontSize=12;fillColor=#f5f5f5;strokeColor=#666666;" parent="6BPpFTSiv5qvTVN_rAg3-24" target="6BPpFTSiv5qvTVN_rAg3-12" edge="1">
                    <mxGeometry relative="1" as="geometry">
                        <mxPoint x="414.28999999999996" y="93.005" as="sourcePoint"/>
                    </mxGeometry>
                </mxCell>
                <mxCell id="6BPpFTSiv5qvTVN_rAg3-20" style="edgeStyle=none;rounded=0;orthogonalLoop=1;jettySize=auto;html=1;exitX=1;exitY=0.5;exitDx=0;exitDy=0;fontSize=12;fillColor=#f5f5f5;strokeColor=#666666;" parent="6BPpFTSiv5qvTVN_rAg3-24" source="6BPpFTSiv5qvTVN_rAg3-14" edge="1">
                    <mxGeometry relative="1" as="geometry">
                        <mxPoint x="821" y="93" as="targetPoint"/>
                    </mxGeometry>
                </mxCell>
                <mxCell id="6BPpFTSiv5qvTVN_rAg3-14" value="Audio Transcription" style="shape=image;editableCssRules=.*;image=data:image/svg+xml,PHN2ZyB2aWV3Qm94PSIwIDAgMjQgMjQiIHhtbG5zPSJodHRwOi8vd3d3LnczLm9yZy8yMDAwL3N2ZyI+PHN0eWxlPip7ZmlsbDojRUU0QzJDfTwvc3R5bGU+PHBhdGggZD0iTTEyLjAwNSAwTDQuOTUyIDcuMDUzYTkuODY1IDkuODY1IDAgMDAwIDE0LjAyMiA5Ljg2NiA5Ljg2NiAwIDAwMTQuMDIyIDBjMy45ODQtMy45IDMuOTg2LTEwLjIwNS4wODUtMTQuMDIzbC0xLjc0NCAxLjc0M2MyLjkwNCAyLjkwNSAyLjkwNCA3LjYzNCAwIDEwLjUzOHMtNy42MzQgMi45MDQtMTAuNTM4IDAtMi45MDQtNy42MzQgMC0xMC41MzhsNC42NDctNC42NDYuNTgyLS42NjV6bTMuNTY4IDMuODk5YTEuMzI3IDEuMzI3IDAgMDAtMS4zMjcgMS4zMjcgMS4zMjcgMS4zMjcgMCAwMDEuMzI3IDEuMzI4QTEuMzI3IDEuMzI3IDAgMDAxNi45IDUuMjI2IDEuMzI3IDEuMzI3IDAgMDAxNS41NzMgMy45eiIvPjwvc3ZnPg==;fontSize=12;labelPosition=center;verticalLabelPosition=bottom;align=center;verticalAlign=top;fontStyle=1;fontColor=#FFFFFF;" parent="6BPpFTSiv5qvTVN_rAg3-24" vertex="1">
                    <mxGeometry x="653" y="47" width="93" height="92" as="geometry"/>
                </mxCell>
                <mxCell id="6BPpFTSiv5qvTVN_rAg3-15" style="edgeStyle=none;rounded=0;orthogonalLoop=1;jettySize=auto;html=1;exitX=1;exitY=0.5;exitDx=0;exitDy=0;entryX=0;entryY=0.5;entryDx=0;entryDy=0;fontSize=12;fillColor=#f5f5f5;strokeColor=#666666;" parent="6BPpFTSiv5qvTVN_rAg3-24" source="6BPpFTSiv5qvTVN_rAg3-12" target="6BPpFTSiv5qvTVN_rAg3-14" edge="1">
                    <mxGeometry relative="1" as="geometry"/>
                </mxCell>
                <mxCell id="6BPpFTSiv5qvTVN_rAg3-19" value="Audio Chunks" style="group;labelPosition=center;verticalLabelPosition=bottom;align=center;verticalAlign=top;fontStyle=1;fontColor=#FFFFFF;" parent="6BPpFTSiv5qvTVN_rAg3-24" vertex="1" connectable="0">
                    <mxGeometry x="822" y="48" width="73.05" height="91" as="geometry"/>
                </mxCell>
                <mxCell id="6BPpFTSiv5qvTVN_rAg3-16" value="" style="sketch=0;pointerEvents=1;shadow=0;dashed=0;html=1;strokeColor=none;fillColor=#005F4B;labelPosition=center;verticalLabelPosition=bottom;verticalAlign=top;align=center;outlineConnect=0;shape=mxgraph.veeam2.audio_file;fontSize=12;" parent="6BPpFTSiv5qvTVN_rAg3-19" vertex="1">
                    <mxGeometry x="24.6247984757438" y="23.552941176470586" width="48.425201524256174" height="67.4470588235294" as="geometry"/>
                </mxCell>
                <mxCell id="6BPpFTSiv5qvTVN_rAg3-17" value="" style="sketch=0;pointerEvents=1;shadow=0;dashed=0;html=1;strokeColor=none;fillColor=#005F4B;labelPosition=center;verticalLabelPosition=bottom;verticalAlign=top;align=center;outlineConnect=0;shape=mxgraph.veeam2.audio_file;fontSize=12;" parent="6BPpFTSiv5qvTVN_rAg3-19" vertex="1">
                    <mxGeometry x="11.777077531877469" y="13.91764705882353" width="48.425201524256174" height="67.4470588235294" as="geometry"/>
                </mxCell>
                <mxCell id="6BPpFTSiv5qvTVN_rAg3-18" value="" style="sketch=0;pointerEvents=1;shadow=0;dashed=0;html=1;strokeColor=none;fillColor=#005F4B;labelPosition=center;verticalLabelPosition=bottom;verticalAlign=top;align=center;outlineConnect=0;shape=mxgraph.veeam2.audio_file;fontSize=12;" parent="6BPpFTSiv5qvTVN_rAg3-19" vertex="1">
                    <mxGeometry width="48.425201524256174" height="67.4470588235294" as="geometry"/>
                </mxCell>
                <mxCell id="6BPpFTSiv5qvTVN_rAg3-22" value="&lt;i&gt;&lt;b&gt;&lt;font color=&quot;#ffffff&quot;&gt;Language = X&lt;/font&gt;&lt;/b&gt;&lt;/i&gt;" style="text;html=1;resizable=0;autosize=1;align=center;verticalAlign=middle;points=[];fillColor=none;strokeColor=none;rounded=0;dashed=1;fontSize=12;" parent="6BPpFTSiv5qvTVN_rAg3-24" vertex="1">
                    <mxGeometry x="841" y="4" width="88" height="18" as="geometry"/>
                </mxCell>
            </root>
        </mxGraphModel>
    </diagram>
    <diagram name="light" id="qnpVCPucdZUVEiZ9VMhV">
        <mxGraphModel dx="914" dy="759" grid="0" gridSize="10" guides="1" tooltips="1" connect="1" arrows="1" fold="1" page="0" pageScale="1" pageWidth="827" pageHeight="1169" background="none" math="0" shadow="0">
            <root>
                <mxCell id="SyLDU2yJjTVw2zfsVupe-0"/>
                <mxCell id="SyLDU2yJjTVw2zfsVupe-1" parent="SyLDU2yJjTVw2zfsVupe-0"/>
                <mxCell id="SyLDU2yJjTVw2zfsVupe-2" value="" style="group" vertex="1" connectable="0" parent="SyLDU2yJjTVw2zfsVupe-1">
                    <mxGeometry x="2" y="174" width="933" height="216" as="geometry"/>
                </mxCell>
                <mxCell id="SyLDU2yJjTVw2zfsVupe-3" value="" style="rounded=0;whiteSpace=wrap;html=1;fontSize=12;dashed=1;fillColor=none;strokeWidth=1.5;strokeColor=#808080;" vertex="1" parent="SyLDU2yJjTVw2zfsVupe-2">
                    <mxGeometry x="288" width="645" height="216" as="geometry"/>
                </mxCell>
                <mxCell id="SyLDU2yJjTVw2zfsVupe-4" style="edgeStyle=orthogonalEdgeStyle;rounded=0;orthogonalLoop=1;jettySize=auto;html=1;exitX=1;exitY=0.5;exitDx=0;exitDy=0;exitPerimeter=0;entryX=0;entryY=0.5;entryDx=0;entryDy=0;fillColor=#f5f5f5;strokeColor=#666666;" edge="1" parent="SyLDU2yJjTVw2zfsVupe-2" target="SyLDU2yJjTVw2zfsVupe-5">
                    <mxGeometry relative="1" as="geometry">
                        <mxPoint x="90" y="93" as="sourcePoint"/>
                    </mxGeometry>
                </mxCell>
                <mxCell id="SyLDU2yJjTVw2zfsVupe-5" value="Pandas DataFrame" style="shape=image;editableCssRules=.*;image=data:image/svg+xml,PHN2ZyB2aWV3Qm94PSIwIDAgMjQgMjQiIHhtbG5zPSJodHRwOi8vd3d3LnczLm9yZy8yMDAwL3N2ZyI+PHN0eWxlPip7ZmlsbDojMTUwNDU4fTwvc3R5bGU+PHBhdGggZD0iTTE2LjkyMiAwaDIuNjIzdjE4LjEwNGgtMi42MjN6bS00LjEyNiAxMi45NGgyLjYyM3YyLjU3aC0yLjYyM3ptMC03LjAzN2gyLjYyM3Y1LjQ0NmgtMi42MjN6bTAgMTEuMTk3aDIuNjIzdjUuNDQ2aC0yLjYyM3pNNC40NTYgNS44OTZoMi42MjJWMjRINC40NTV6bTQuMjEzIDIuNTU5aDIuNjIzdjIuNTdIOC42N3ptMCA0LjE1MWgyLjYyM3Y1LjQ0N0g4LjY3em0wLTExLjE4N2gyLjYyM3Y1LjQ0Nkg4LjY3WiIvPjwvc3ZnPg==;labelPosition=center;verticalLabelPosition=bottom;align=center;verticalAlign=top;fontStyle=1;fontColor=#000000;" vertex="1" parent="SyLDU2yJjTVw2zfsVupe-2">
                    <mxGeometry x="163" y="50" width="85" height="86" as="geometry"/>
                </mxCell>
                <mxCell id="SyLDU2yJjTVw2zfsVupe-6" style="rounded=0;orthogonalLoop=1;jettySize=auto;html=1;exitX=1;exitY=0.5;exitDx=0;exitDy=0;entryX=0;entryY=0.5;entryDx=0;entryDy=0;fontSize=78;fillColor=#f5f5f5;strokeColor=#666666;" edge="1" parent="SyLDU2yJjTVw2zfsVupe-2" source="SyLDU2yJjTVw2zfsVupe-5">
                    <mxGeometry relative="1" as="geometry">
                        <mxPoint x="321" y="93.005" as="targetPoint"/>
                    </mxGeometry>
                </mxCell>
                <mxCell id="SyLDU2yJjTVw2zfsVupe-7" value="&lt;b&gt;&lt;font color=&quot;#000000&quot;&gt;Audio Data&lt;/font&gt;&lt;/b&gt;" style="shadow=0;dashed=0;html=1;strokeColor=none;fillColor=#4495D1;labelPosition=center;verticalLabelPosition=bottom;verticalAlign=top;align=center;outlineConnect=0;shape=mxgraph.veeam.backup_file;strokeWidth=2;fontSize=12;" vertex="1" parent="SyLDU2yJjTVw2zfsVupe-2">
                    <mxGeometry y="51.06999999999999" width="90.8" height="83.86" as="geometry"/>
                </mxCell>
                <mxCell id="SyLDU2yJjTVw2zfsVupe-8" value="&lt;font style=&quot;font-size: 12px&quot;&gt;&lt;b&gt;HuggingFace Dataset&lt;/b&gt;&lt;/font&gt;" style="text;html=1;resizable=0;autosize=1;align=center;verticalAlign=middle;points=[];fillColor=none;strokeColor=none;rounded=0;dashed=1;labelBackgroundColor=none;strokeWidth=1.5;fontSize=90;fontColor=#000000;" vertex="1" parent="SyLDU2yJjTVw2zfsVupe-2">
                    <mxGeometry x="300" y="56" width="133" height="139" as="geometry"/>
                </mxCell>
                <mxCell id="SyLDU2yJjTVw2zfsVupe-9" value="&lt;font style=&quot;font-size: 90px;&quot;&gt;ðŸ¤—&lt;/font&gt;" style="text;html=1;resizable=0;autosize=1;align=center;verticalAlign=middle;points=[];fillColor=none;strokeColor=none;rounded=0;dashed=1;labelBackgroundColor=none;strokeWidth=1.5;fontSize=12;fontColor=#000000;" vertex="1" parent="SyLDU2yJjTVw2zfsVupe-2">
                    <mxGeometry x="313.64" y="33.5" width="108" height="120" as="geometry"/>
                </mxCell>
                <mxCell id="SyLDU2yJjTVw2zfsVupe-10" value="Audio Classification" style="shape=image;editableCssRules=.*;image=data:image/svg+xml,PHN2ZyB2aWV3Qm94PSIwIDAgMjQgMjQiIHhtbG5zPSJodHRwOi8vd3d3LnczLm9yZy8yMDAwL3N2ZyI+PHN0eWxlPip7ZmlsbDojRUU0QzJDfTwvc3R5bGU+PHBhdGggZD0iTTEyLjAwNSAwTDQuOTUyIDcuMDUzYTkuODY1IDkuODY1IDAgMDAwIDE0LjAyMiA5Ljg2NiA5Ljg2NiAwIDAwMTQuMDIyIDBjMy45ODQtMy45IDMuOTg2LTEwLjIwNS4wODUtMTQuMDIzbC0xLjc0NCAxLjc0M2MyLjkwNCAyLjkwNSAyLjkwNCA3LjYzNCAwIDEwLjUzOHMtNy42MzQgMi45MDQtMTAuNTM4IDAtMi45MDQtNy42MzQgMC0xMC41MzhsNC42NDctNC42NDYuNTgyLS42NjV6bTMuNTY4IDMuODk5YTEuMzI3IDEuMzI3IDAgMDAtMS4zMjcgMS4zMjcgMS4zMjcgMS4zMjcgMCAwMDEuMzI3IDEuMzI4QTEuMzI3IDEuMzI3IDAgMDAxNi45IDUuMjI2IDEuMzI3IDEuMzI3IDAgMDAxNS41NzMgMy45eiIvPjwvc3ZnPg==;fontSize=12;labelPosition=center;verticalLabelPosition=bottom;align=center;verticalAlign=top;fontStyle=1;fontColor=#000000;" vertex="1" parent="SyLDU2yJjTVw2zfsVupe-2">
                    <mxGeometry x="487" y="47" width="93" height="92" as="geometry"/>
                </mxCell>
                <mxCell id="SyLDU2yJjTVw2zfsVupe-11" style="edgeStyle=none;rounded=0;orthogonalLoop=1;jettySize=auto;html=1;exitX=1;exitY=0.5;exitDx=0;exitDy=0;entryX=0;entryY=0.5;entryDx=0;entryDy=0;fontSize=12;fillColor=#f5f5f5;strokeColor=#666666;" edge="1" parent="SyLDU2yJjTVw2zfsVupe-2" target="SyLDU2yJjTVw2zfsVupe-10">
                    <mxGeometry relative="1" as="geometry">
                        <mxPoint x="414.28999999999996" y="93.005" as="sourcePoint"/>
                    </mxGeometry>
                </mxCell>
                <mxCell id="SyLDU2yJjTVw2zfsVupe-12" style="edgeStyle=none;rounded=0;orthogonalLoop=1;jettySize=auto;html=1;exitX=1;exitY=0.5;exitDx=0;exitDy=0;fontSize=12;fillColor=#f5f5f5;strokeColor=#666666;" edge="1" parent="SyLDU2yJjTVw2zfsVupe-2" source="SyLDU2yJjTVw2zfsVupe-13">
                    <mxGeometry relative="1" as="geometry">
                        <mxPoint x="821" y="93" as="targetPoint"/>
                    </mxGeometry>
                </mxCell>
                <mxCell id="SyLDU2yJjTVw2zfsVupe-13" value="Audio Transcription" style="shape=image;editableCssRules=.*;image=data:image/svg+xml,PHN2ZyB2aWV3Qm94PSIwIDAgMjQgMjQiIHhtbG5zPSJodHRwOi8vd3d3LnczLm9yZy8yMDAwL3N2ZyI+PHN0eWxlPip7ZmlsbDojRUU0QzJDfTwvc3R5bGU+PHBhdGggZD0iTTEyLjAwNSAwTDQuOTUyIDcuMDUzYTkuODY1IDkuODY1IDAgMDAwIDE0LjAyMiA5Ljg2NiA5Ljg2NiAwIDAwMTQuMDIyIDBjMy45ODQtMy45IDMuOTg2LTEwLjIwNS4wODUtMTQuMDIzbC0xLjc0NCAxLjc0M2MyLjkwNCAyLjkwNSAyLjkwNCA3LjYzNCAwIDEwLjUzOHMtNy42MzQgMi45MDQtMTAuNTM4IDAtMi45MDQtNy42MzQgMC0xMC41MzhsNC42NDctNC42NDYuNTgyLS42NjV6bTMuNTY4IDMuODk5YTEuMzI3IDEuMzI3IDAgMDAtMS4zMjcgMS4zMjcgMS4zMjcgMS4zMjcgMCAwMDEuMzI3IDEuMzI4QTEuMzI3IDEuMzI3IDAgMDAxNi45IDUuMjI2IDEuMzI3IDEuMzI3IDAgMDAxNS41NzMgMy45eiIvPjwvc3ZnPg==;fontSize=12;labelPosition=center;verticalLabelPosition=bottom;align=center;verticalAlign=top;fontStyle=1;fontColor=#000000;" vertex="1" parent="SyLDU2yJjTVw2zfsVupe-2">
                    <mxGeometry x="653" y="47" width="93" height="92" as="geometry"/>
                </mxCell>
                <mxCell id="SyLDU2yJjTVw2zfsVupe-14" style="edgeStyle=none;rounded=0;orthogonalLoop=1;jettySize=auto;html=1;exitX=1;exitY=0.5;exitDx=0;exitDy=0;entryX=0;entryY=0.5;entryDx=0;entryDy=0;fontSize=12;fillColor=#f5f5f5;strokeColor=#666666;" edge="1" parent="SyLDU2yJjTVw2zfsVupe-2" source="SyLDU2yJjTVw2zfsVupe-10" target="SyLDU2yJjTVw2zfsVupe-13">
                    <mxGeometry relative="1" as="geometry"/>
                </mxCell>
                <mxCell id="SyLDU2yJjTVw2zfsVupe-15" value="Audio Chunks" style="group;labelPosition=center;verticalLabelPosition=bottom;align=center;verticalAlign=top;fontStyle=1;fontColor=#000000;" vertex="1" connectable="0" parent="SyLDU2yJjTVw2zfsVupe-2">
                    <mxGeometry x="822" y="48" width="73.05" height="91" as="geometry"/>
                </mxCell>
                <mxCell id="SyLDU2yJjTVw2zfsVupe-16" value="" style="sketch=0;pointerEvents=1;shadow=0;dashed=0;html=1;strokeColor=none;fillColor=#005F4B;labelPosition=center;verticalLabelPosition=bottom;verticalAlign=top;align=center;outlineConnect=0;shape=mxgraph.veeam2.audio_file;fontSize=12;" vertex="1" parent="SyLDU2yJjTVw2zfsVupe-15">
                    <mxGeometry x="24.6247984757438" y="23.552941176470586" width="48.425201524256174" height="67.4470588235294" as="geometry"/>
                </mxCell>
                <mxCell id="SyLDU2yJjTVw2zfsVupe-17" value="" style="sketch=0;pointerEvents=1;shadow=0;dashed=0;html=1;strokeColor=none;fillColor=#005F4B;labelPosition=center;verticalLabelPosition=bottom;verticalAlign=top;align=center;outlineConnect=0;shape=mxgraph.veeam2.audio_file;fontSize=12;" vertex="1" parent="SyLDU2yJjTVw2zfsVupe-15">
                    <mxGeometry x="11.777077531877469" y="13.91764705882353" width="48.425201524256174" height="67.4470588235294" as="geometry"/>
                </mxCell>
                <mxCell id="SyLDU2yJjTVw2zfsVupe-18" value="" style="sketch=0;pointerEvents=1;shadow=0;dashed=0;html=1;strokeColor=none;fillColor=#005F4B;labelPosition=center;verticalLabelPosition=bottom;verticalAlign=top;align=center;outlineConnect=0;shape=mxgraph.veeam2.audio_file;fontSize=12;" vertex="1" parent="SyLDU2yJjTVw2zfsVupe-15">
                    <mxGeometry width="48.425201524256174" height="67.4470588235294" as="geometry"/>
                </mxCell>
                <mxCell id="SyLDU2yJjTVw2zfsVupe-19" value="&lt;i&gt;&lt;b&gt;&lt;font color=&quot;#000000&quot;&gt;Language = X&lt;/font&gt;&lt;/b&gt;&lt;/i&gt;" style="text;html=1;resizable=0;autosize=1;align=center;verticalAlign=middle;points=[];fillColor=none;strokeColor=none;rounded=0;dashed=1;fontSize=12;" vertex="1" parent="SyLDU2yJjTVw2zfsVupe-2">
                    <mxGeometry x="841" y="4" width="88" height="18" as="geometry"/>
                </mxCell>
            </root>
        </mxGraphModel>
    </diagram>
</mxfile>